<?xml version="1.0" standalone="no"?><!DOCTYPE svg PUBLIC "-//W3C//DTD SVG 1.1//EN" "http://www.w3.org/Graphics/SVG/1.1/DTD/svg11.dtd"><svg t="1559392701912" class="icon" style="" viewBox="0 0 1024 1024" version="1.1" xmlns="http://www.w3.org/2000/svg" p-id="4854" xmlns:xlink="http://www.w3.org/1999/xlink" width="64" height="64"><defs><style type="text/css"></style></defs><path d="M778.93632 687.21664c-107.93984-8.56064-215.90016-17.1008-323.84-25.64096 5.8368-2.85696 11.6736-5.72416 17.50016-8.56064 99.18464-71.2192 198.4-142.45888 297.5744-213.67808l-17.5104 0c-107.15136-46.2848-437.11488-35.95264-533.87264 8.5504 128.34816 8.54016 256.74752 17.09056 385.09568 25.64096-2.9184 5.69344-5.8368 11.39712-8.74496 17.09056C490.12736 559.0016 385.08544 627.4048 280.064 695.7568l0 8.54016c191.49824 25.78432 400.4352 2.6624 577.65888-17.08032l0 8.54016-17.52064 0c-32.43008 25.51808-37.56032 11.60192-43.75552 68.38272 14.60224 71.2192 29.19424 142.45888 43.75552 213.6576-2.89792 2.85696-5.81632 5.70368-8.74496 8.56064l-35.0208 0c-70.06208-59.17696-196.4032-144.32256-306.3296-153.856-90.42944 51.3024-180.8896 102.58432-271.31904 153.856-11.66336-5.70368-23.3472-11.39712-35.01056-17.1008 20.41856-111.104 40.84736-222.23872 61.26592-333.34272C163.3792 561.85856 81.68448 487.77216 0 413.696c1.96608-5.76512 3.93216-11.52 5.89824-17.28512 0.31744-0.9216 0.63488-1.85344 0.95232-2.77504 0.63488-1.86368 1.26976-3.70688 1.90464-5.57056 107.93984-14.24384 215.90016-28.49792 323.84-42.73152 58.33728-102.56384 116.69504-205.13792 175.04256-307.69152l17.50016 0c49.59232 105.40032 99.20512 210.83136 148.77696 316.24192 113.75616 11.39712 227.57376 22.79424 341.34016 34.19136 2.9184 5.69344 5.81632 11.39712 8.74496 17.09056-81.68448 79.7696-163.3792 159.56992-245.06368 239.32928C778.93632 658.71872 778.93632 672.98304 778.93632 687.21664L778.93632 687.21664z" p-id="4855" fill="#8a8a8a"></path></svg>